<svg xmlns="http://www.w3.org/2000/svg" xmlns:xlink="http://www.w3.org/1999/xlink" width="500" zoomAndPan="magnify" viewBox="0 0 375 374.999991" height="500" preserveAspectRatio="xMidYMid meet" version="1.0"><defs><g/><clipPath id="4bd0293f6d"><path d="M 161.550781 165.613281 L 298.851562 165.613281 L 298.851562 209.386719 L 161.550781 209.386719 Z M 161.550781 165.613281 " clip-rule="nonzero"/></clipPath><clipPath id="e5bc4083af"><path d="M 193.867188 165.613281 L 292.476562 165.613281 C 294.625 165.613281 296.609375 166.765625 297.675781 168.636719 C 298.742188 170.503906 298.722656 172.796875 297.625 174.648438 L 282.40625 200.351562 C 279.089844 205.953125 273.0625 209.386719 266.554688 209.386719 L 167.945312 209.386719 C 165.796875 209.386719 163.8125 208.234375 162.746094 206.363281 C 161.683594 204.496094 161.703125 202.203125 162.796875 200.351562 L 178.019531 174.648438 C 181.335938 169.046875 187.359375 165.613281 193.867188 165.613281 Z M 193.867188 165.613281 " clip-rule="nonzero"/></clipPath></defs><g clip-path="url(#4bd0293f6d)"><g clip-path="url(#e5bc4083af)"><path fill="#000000" d="M 157.445312 165.613281 L 302.957031 165.613281 L 302.957031 209.386719 L 157.445312 209.386719 Z M 157.445312 165.613281 " fill-opacity="1" fill-rule="nonzero"/></g></g><g fill="#000000" fill-opacity="1"><g transform="translate(72.023781, 202.018808)"><g><path d="M 2.578125 -25.796875 L 13.828125 -25.796875 C 17.117188 -25.796875 19.671875 -25.015625 21.484375 -23.453125 C 23.304688 -21.898438 24.21875 -19.6875 24.21875 -16.8125 C 24.21875 -13.789062 23.304688 -11.441406 21.484375 -9.765625 C 19.671875 -8.097656 17.117188 -7.265625 13.828125 -7.265625 L 9.140625 -7.265625 L 9.140625 0 L 2.578125 0 Z M 9.140625 -20.640625 L 9.140625 -12.421875 L 13.484375 -12.421875 C 14.941406 -12.421875 16.0625 -12.773438 16.84375 -13.484375 C 17.632812 -14.203125 18.03125 -15.238281 18.03125 -16.59375 C 18.03125 -17.914062 17.632812 -18.921875 16.84375 -19.609375 C 16.0625 -20.296875 14.941406 -20.640625 13.484375 -20.640625 Z M 9.140625 -20.640625 "/></g></g></g><g fill="#000000" fill-opacity="1"><g transform="translate(94.988646, 202.018808)"><g><path d="M 11.234375 -20.09375 C 14.679688 -20.09375 17.269531 -19.035156 19 -16.921875 C 20.726562 -14.804688 21.484375 -11.90625 21.265625 -8.21875 L 7.296875 -8.21875 C 7.617188 -7.039062 8.179688 -6.128906 8.984375 -5.484375 C 9.796875 -4.847656 10.796875 -4.53125 11.984375 -4.53125 C 13.796875 -4.53125 15.378906 -5.207031 16.734375 -6.5625 L 20.09375 -3.28125 C 17.945312 -0.945312 15.054688 0.21875 11.421875 0.21875 C 8.203125 0.21875 5.640625 -0.703125 3.734375 -2.546875 C 1.835938 -4.390625 0.890625 -6.832031 0.890625 -9.875 C 0.890625 -12.945312 1.835938 -15.414062 3.734375 -17.28125 C 5.640625 -19.15625 8.140625 -20.09375 11.234375 -20.09375 Z M 7.1875 -11.640625 L 15.15625 -11.640625 C 15.15625 -12.847656 14.800781 -13.820312 14.09375 -14.5625 C 13.394531 -15.300781 12.46875 -15.671875 11.3125 -15.671875 C 10.226562 -15.671875 9.316406 -15.304688 8.578125 -14.578125 C 7.847656 -13.847656 7.382812 -12.867188 7.1875 -11.640625 Z M 7.1875 -11.640625 "/></g></g></g><g fill="#000000" fill-opacity="1"><g transform="translate(115.078276, 202.018808)"><g><path d="M 15.546875 -20.15625 C 17.734375 -20.15625 19.488281 -19.460938 20.8125 -18.078125 C 22.144531 -16.691406 22.8125 -14.84375 22.8125 -12.53125 L 22.8125 0 L 16.46875 0 L 16.46875 -10.765625 C 16.46875 -11.921875 16.15625 -12.832031 15.53125 -13.5 C 14.90625 -14.175781 14.050781 -14.515625 12.96875 -14.515625 C 11.84375 -14.515625 10.914062 -14.144531 10.1875 -13.40625 C 9.46875 -12.675781 9.046875 -11.707031 8.921875 -10.5 L 8.921875 0 L 2.546875 0 L 2.546875 -19.859375 L 8.921875 -19.859375 L 8.921875 -16.625 C 10.316406 -18.9375 12.523438 -20.113281 15.546875 -20.15625 Z M 15.546875 -20.15625 "/></g></g></g><g fill="#000000" fill-opacity="1"><g transform="translate(137.785108, 202.018808)"><g><path d="M 14.109375 -5.484375 L 15.375 -1.0625 C 13.820312 -0.15625 12.050781 0.296875 10.0625 0.296875 C 8.09375 0.296875 6.5 -0.25 5.28125 -1.34375 C 4.070312 -2.4375 3.46875 -3.992188 3.46875 -6.015625 L 3.46875 -14.78125 L 0.703125 -14.78125 L 0.703125 -18.953125 L 3.46875 -18.953125 L 3.46875 -24.46875 L 9.796875 -24.46875 L 9.796875 -18.984375 L 15 -18.984375 L 15 -14.78125 L 9.796875 -14.78125 L 9.796875 -7 C 9.796875 -6.238281 9.945312 -5.679688 10.25 -5.328125 C 10.5625 -4.972656 11.023438 -4.804688 11.640625 -4.828125 C 12.234375 -4.828125 13.054688 -5.046875 14.109375 -5.484375 Z M 14.109375 -5.484375 "/></g></g></g><g fill="#000000" fill-opacity="1"><g transform="translate(151.718762, 202.018808)"><g><path d="M 11.46875 -20.15625 C 14.1875 -20.15625 16.300781 -19.519531 17.8125 -18.25 C 19.332031 -16.988281 20.101562 -15.226562 20.125 -12.96875 L 20.125 0 L 13.890625 0 L 13.890625 -2.28125 C 12.585938 -0.5625 10.5625 0.296875 7.8125 0.296875 C 5.726562 0.296875 4.070312 -0.28125 2.84375 -1.4375 C 1.613281 -2.59375 1 -4.09375 1 -5.9375 C 1 -7.820312 1.65625 -9.285156 2.96875 -10.328125 C 4.28125 -11.378906 6.164062 -11.914062 8.625 -11.9375 L 13.859375 -11.9375 L 13.859375 -12.234375 C 13.859375 -13.222656 13.53125 -13.992188 12.875 -14.546875 C 12.226562 -15.097656 11.265625 -15.375 9.984375 -15.375 C 8.191406 -15.375 6.210938 -14.820312 4.046875 -13.71875 L 2.25 -17.90625 C 5.46875 -19.40625 8.539062 -20.15625 11.46875 -20.15625 Z M 9.765625 -4.015625 C 10.773438 -4.015625 11.660156 -4.265625 12.421875 -4.765625 C 13.179688 -5.273438 13.660156 -5.9375 13.859375 -6.75 L 13.859375 -8.515625 L 9.84375 -8.515625 C 7.925781 -8.515625 6.96875 -7.800781 6.96875 -6.375 C 6.96875 -5.632812 7.210938 -5.054688 7.703125 -4.640625 C 8.191406 -4.222656 8.878906 -4.015625 9.765625 -4.015625 Z M 9.765625 -4.015625 "/></g></g></g><g fill="#ffffff" fill-opacity="1"><g transform="translate(167.807293, 202.018808)"><g><path d="M 19.71875 -13.125 L 25.390625 -13.125 L 25.390625 -3.0625 C 23.992188 -2.070312 22.304688 -1.265625 20.328125 -0.640625 C 18.347656 -0.015625 16.460938 0.296875 14.671875 0.296875 C 10.734375 0.296875 7.453125 -0.960938 4.828125 -3.484375 C 2.203125 -6.003906 0.890625 -9.144531 0.890625 -12.90625 C 0.890625 -16.632812 2.238281 -19.75 4.9375 -22.25 C 7.644531 -24.757812 11.035156 -26.015625 15.109375 -26.015625 C 17.023438 -26.015625 18.925781 -25.671875 20.8125 -24.984375 C 22.707031 -24.296875 24.320312 -23.363281 25.65625 -22.1875 L 21.96875 -17.734375 C 21.03125 -18.585938 19.945312 -19.265625 18.71875 -19.765625 C 17.488281 -20.273438 16.273438 -20.53125 15.078125 -20.53125 C 12.960938 -20.53125 11.1875 -19.796875 9.75 -18.328125 C 8.3125 -16.867188 7.59375 -15.0625 7.59375 -12.90625 C 7.59375 -10.71875 8.316406 -8.882812 9.765625 -7.40625 C 11.210938 -5.9375 13.007812 -5.203125 15.15625 -5.203125 C 16.53125 -5.203125 18.050781 -5.617188 19.71875 -6.453125 Z M 19.71875 -13.125 "/></g></g></g><g fill="#ffffff" fill-opacity="1"><g transform="translate(193.094467, 202.018808)"><g><path d="M 8.921875 -19.859375 L 8.921875 -16.515625 C 10.316406 -18.898438 12.46875 -20.113281 15.375 -20.15625 L 15.375 -14.40625 C 13.550781 -14.582031 12.0625 -14.28125 10.90625 -13.5 C 9.75 -12.726562 9.085938 -11.628906 8.921875 -10.203125 L 8.921875 0 L 2.546875 0 L 2.546875 -19.859375 Z M 8.921875 -19.859375 "/></g></g></g><g fill="#ffffff" fill-opacity="1"><g transform="translate(206.73323, 202.018808)"><g><path d="M 11.46875 -20.15625 C 14.1875 -20.15625 16.300781 -19.519531 17.8125 -18.25 C 19.332031 -16.988281 20.101562 -15.226562 20.125 -12.96875 L 20.125 0 L 13.890625 0 L 13.890625 -2.28125 C 12.585938 -0.5625 10.5625 0.296875 7.8125 0.296875 C 5.726562 0.296875 4.070312 -0.28125 2.84375 -1.4375 C 1.613281 -2.59375 1 -4.09375 1 -5.9375 C 1 -7.820312 1.65625 -9.285156 2.96875 -10.328125 C 4.28125 -11.378906 6.164062 -11.914062 8.625 -11.9375 L 13.859375 -11.9375 L 13.859375 -12.234375 C 13.859375 -13.222656 13.53125 -13.992188 12.875 -14.546875 C 12.226562 -15.097656 11.265625 -15.375 9.984375 -15.375 C 8.191406 -15.375 6.210938 -14.820312 4.046875 -13.71875 L 2.25 -17.90625 C 5.46875 -19.40625 8.539062 -20.15625 11.46875 -20.15625 Z M 9.765625 -4.015625 C 10.773438 -4.015625 11.660156 -4.265625 12.421875 -4.765625 C 13.179688 -5.273438 13.660156 -5.9375 13.859375 -6.75 L 13.859375 -8.515625 L 9.84375 -8.515625 C 7.925781 -8.515625 6.96875 -7.800781 6.96875 -6.375 C 6.96875 -5.632812 7.210938 -5.054688 7.703125 -4.640625 C 8.191406 -4.222656 8.878906 -4.015625 9.765625 -4.015625 Z M 9.765625 -4.015625 "/></g></g></g><g fill="#ffffff" fill-opacity="1"><g transform="translate(226.749131, 202.018808)"><g><path d="M 29.078125 -20.15625 C 31.265625 -20.15625 33.003906 -19.460938 34.296875 -18.078125 C 35.585938 -16.691406 36.234375 -14.84375 36.234375 -12.53125 L 36.234375 0 L 29.890625 0 L 29.890625 -10.765625 C 29.890625 -11.941406 29.582031 -12.867188 28.96875 -13.546875 C 28.351562 -14.222656 27.519531 -14.5625 26.46875 -14.5625 C 25.289062 -14.53125 24.347656 -14.078125 23.640625 -13.203125 C 22.941406 -12.335938 22.59375 -11.21875 22.59375 -9.84375 L 22.59375 0 L 16.21875 0 L 16.21875 -10.765625 C 16.21875 -11.941406 15.914062 -12.867188 15.3125 -13.546875 C 14.707031 -14.222656 13.878906 -14.5625 12.828125 -14.5625 C 11.617188 -14.53125 10.660156 -14.070312 9.953125 -13.1875 C 9.242188 -12.3125 8.890625 -11.195312 8.890625 -9.84375 L 8.890625 0 L 2.546875 0 L 2.546875 -19.859375 L 8.890625 -19.859375 L 8.890625 -16.59375 C 10.234375 -18.925781 12.414062 -20.113281 15.4375 -20.15625 C 17.039062 -20.15625 18.425781 -19.753906 19.59375 -18.953125 C 20.757812 -18.160156 21.585938 -17.066406 22.078125 -15.671875 C 23.378906 -18.617188 25.710938 -20.113281 29.078125 -20.15625 Z M 29.078125 -20.15625 "/></g></g></g></svg>