<svg version="1.1" id="Layer_1" xmlns="http://www.w3.org/2000/svg" xmlns:xlink="http://www.w3.org/1999/xlink" x="0px" y="0px"
	 width="100%" viewBox="0 0 1080 1080" enable-background="new 0 0 1080 1080" xml:space="preserve">
<path fill="#FFFFFF" opacity="1.000000" stroke="none" 
	d="
M978.000000,1081.000000 
	C652.000000,1081.000000 326.500000,1081.000000 1.000000,1081.000000 
	C1.000000,721.000000 1.000000,361.000000 1.000000,1.000000 
	C361.000000,1.000000 721.000000,1.000000 1081.000000,1.000000 
	C1081.000000,361.000000 1081.000000,721.000000 1081.000000,1081.000000 
	C1046.833374,1081.000000 1012.666687,1081.000000 978.000000,1081.000000 
M461.181976,558.499268 
	C461.182037,563.331116 461.126465,568.164124 461.220520,572.994141 
	C461.244659,574.232849 461.323730,575.916443 462.089935,576.620850 
	C466.374878,580.559875 471.133850,583.375488 478.030518,580.930054 
	C478.030518,561.468384 478.030518,541.820312 478.030518,521.644836 
	C480.239624,523.325867 481.570770,525.004883 483.243408,525.478882 
	C487.252533,526.615051 487.328522,529.343323 487.296875,532.688293 
	C487.172333,545.849731 487.228149,559.013062 487.270935,572.175537 
	C487.275635,573.628906 487.094086,575.572266 487.905609,576.451416 
	C492.093933,580.988403 497.139954,583.278503 503.741302,581.034851 
	C503.741302,579.168274 503.741211,577.353394 503.741272,575.538513 
	C503.741730,560.709778 503.866089,545.879272 503.660980,531.053406 
	C503.605377,527.033020 505.333984,526.477539 508.750244,526.413269 
	C512.422058,526.344238 513.192078,527.844666 513.159363,531.150146 
	C513.022766,544.977844 513.076050,558.807861 513.143738,572.636597 
	C513.150452,574.013916 513.284607,575.799744 514.115234,576.694824 
	C518.222961,581.121277 523.164917,583.277771 529.932922,580.889954 
	C529.932922,573.620911 529.932922,566.115295 529.932922,558.609619 
	C530.400757,558.616699 530.868530,558.623718 531.336365,558.630798 
	C531.336365,563.218018 531.305725,567.805542 531.355713,572.392273 
	C531.369995,573.702698 531.125244,575.694092 531.838867,576.208557 
	C536.403198,579.499084 540.709412,584.043884 547.803955,580.863525 
	C547.803955,579.542725 547.803955,577.919006 547.803894,576.295349 
	C547.803467,559.967041 547.809021,543.638794 547.799500,527.310486 
	C547.795837,521.041504 540.507263,511.679596 534.335449,511.434296 
	C526.977234,511.141815 518.785645,508.613861 512.833557,516.998352 
	C509.187164,510.097900 503.228882,511.110565 497.569366,511.161682 
	C495.403564,511.181244 493.237396,511.164886 491.071411,511.164886 
	C486.492279,511.164886 481.913147,511.164856 477.287170,511.164856 
	C477.098755,514.566956 476.959076,517.088379 476.783234,520.263611 
	C469.715088,514.790710 464.226349,506.577209 456.445374,512.405823 
	C450.980896,511.770416 447.263062,511.338135 443.652161,510.918304 
	C443.039764,513.302063 442.656281,514.794861 441.900360,517.737427 
	C437.331116,510.679291 431.229095,510.966461 424.991211,511.106903 
	C415.192627,511.327576 414.348785,511.723663 410.172302,521.662109 
	C401.744293,508.195312 388.876068,511.049255 376.584320,511.440308 
	C376.338806,512.204346 376.063812,512.661865 376.063019,513.119934 
	C376.027496,533.446594 376.011627,553.773315 376.018585,574.100037 
	C376.018860,574.911987 375.991516,576.213928 376.436035,576.460632 
	C381.347656,579.186768 385.599945,584.421570 392.643707,580.802734 
	C392.643707,575.190918 392.517609,569.378235 392.723633,563.577271 
	C392.782349,561.924194 393.322540,559.496704 394.470642,558.810303 
	C399.535156,555.782104 404.902283,553.260132 411.233765,550.002197 
	C411.233765,557.792175 411.231720,564.377808 411.234344,570.963379 
	C411.236664,576.808533 415.238159,581.468018 421.005493,581.681274 
	C427.972198,581.938843 434.955688,581.742310 442.011505,581.742310 
	C442.557465,580.003235 443.016968,578.539490 443.756317,576.184204 
	C448.536438,580.343384 453.145660,583.852173 459.951355,580.650513 
	C459.951355,563.191040 459.951355,545.426880 459.951355,527.662659 
	C460.361664,527.666260 460.771973,527.669800 461.182281,527.673401 
	C461.182281,537.615417 461.182281,547.557495 461.181976,558.499268 
M614.521912,580.159119 
	C616.184998,580.688171 617.832458,581.605835 619.514099,581.673462 
	C624.549622,581.875916 629.598694,581.772400 634.641907,581.727600 
	C635.907043,581.716370 637.170166,581.476929 639.053223,581.276489 
	C639.053223,573.569031 639.053223,566.148865 639.053223,558.728760 
	C639.480957,558.733398 639.908691,558.738098 640.336426,558.742737 
	C640.336426,563.347839 640.300476,567.953369 640.359436,572.557678 
	C640.376160,573.860779 640.184204,575.805786 640.915894,576.356567 
	C645.620361,579.898254 650.309204,583.966431 657.230713,580.996826 
	C657.737366,578.968384 658.253113,574.377808 661.483459,577.908203 
	C665.757751,582.579651 670.204834,581.739136 675.775085,581.366333 
	C675.775085,563.223938 675.775085,545.399658 675.775085,527.575378 
	C676.204651,527.580017 676.634155,527.584595 677.063721,527.589233 
	C677.063721,529.192322 677.063721,530.795471 677.063721,532.398621 
	C677.063721,545.724548 677.043213,559.050598 677.093689,572.376343 
	C677.099060,573.804871 677.006897,575.727051 677.830322,576.576294 
	C682.082092,580.961426 687.105713,583.307129 693.978516,580.916687 
	C693.978516,563.191284 693.978516,545.399475 693.978516,527.607666 
	C695.123779,529.202454 695.264343,530.806946 695.266541,532.411560 
	C695.284424,545.737549 695.239197,559.063721 695.328552,572.389099 
	C695.338684,573.899109 695.604370,575.825928 696.535461,576.838684 
	C700.511230,581.162598 705.453796,582.860229 711.338745,581.304688 
	C711.500610,580.703430 711.734924,580.237854 711.735596,579.771973 
	C711.762451,561.615540 711.792053,543.459106 711.730530,525.302917 
	C711.725647,523.868408 711.482483,522.109741 710.649902,521.054138 
	C703.596619,512.112549 694.183350,506.561249 682.441101,514.828735 
	C670.470947,506.757477 661.533875,509.891083 657.668396,523.514771 
	C651.869629,515.442322 646.655457,509.904358 633.363159,511.049408 
	C625.395630,511.735718 622.133911,514.361206 622.113403,522.339661 
	C622.077026,536.498413 622.110413,550.657349 622.088074,564.816162 
	C622.086243,565.987000 621.882935,567.157593 621.647339,569.672485 
	C619.309631,564.397644 617.728638,560.395325 615.781067,556.580200 
	C614.353699,553.784180 614.702148,552.282715 617.581177,550.621399 
	C619.133728,549.725586 620.487122,547.226257 620.617126,545.358887 
	C621.009521,539.722717 620.761658,534.041687 620.758545,528.378174 
	C620.754700,521.470764 615.159851,512.789612 608.435059,511.821960 
	C601.190918,510.779572 593.680603,511.586273 586.001892,511.586273 
	C586.001892,532.676514 585.992676,553.320374 586.032227,573.964172 
	C586.033997,574.881409 586.183105,576.108032 586.765869,576.665222 
	C591.152405,580.859070 596.100708,583.308777 602.967407,580.914795 
	C602.967407,575.507385 602.967407,570.073425 602.967407,564.639526 
	C605.192383,567.395630 606.182068,570.433228 607.848328,573.037903 
	C609.466980,575.568176 611.779663,577.654358 614.521912,580.159119 
M577.829285,515.675903 
	C573.257385,509.292236 566.457642,511.338562 560.337158,511.224243 
	C553.162415,511.090240 549.942322,514.396912 549.917969,521.503418 
	C549.867126,536.332825 549.887878,551.162476 549.906616,565.992065 
	C549.915405,572.913818 555.990417,580.849976 562.795227,581.487671 
	C569.851013,582.148926 577.016907,581.634949 584.692688,581.634949 
	C584.692688,570.441956 584.568237,559.657349 584.746277,548.877747 
	C584.832336,543.670227 585.156372,538.606934 579.423950,536.603149 
	C581.400269,534.351013 584.074219,532.682007 584.484924,530.572327 
	C585.628784,524.696594 584.443665,519.245605 577.829285,515.675903 
z"/>
<path fill="#CA6EE7" opacity="1.000000" stroke="none" 
	d="
M461.182129,557.999390 
	C461.182281,547.557495 461.182281,537.615417 461.182281,527.673401 
	C460.771973,527.669800 460.361664,527.666260 459.951355,527.662659 
	C459.951355,545.426880 459.951355,563.191040 459.951355,580.650513 
	C453.145660,583.852173 448.536438,580.343384 443.756317,576.184204 
	C443.016968,578.539490 442.557465,580.003235 442.011505,581.742310 
	C434.955688,581.742310 427.972198,581.938843 421.005493,581.681274 
	C415.238159,581.468018 411.236664,576.808533 411.234344,570.963379 
	C411.231720,564.377808 411.233765,557.792175 411.233765,550.002197 
	C404.902283,553.260132 399.535156,555.782104 394.470642,558.810303 
	C393.322540,559.496704 392.782349,561.924194 392.723633,563.577271 
	C392.517609,569.378235 392.643707,575.190918 392.643707,580.802734 
	C385.599945,584.421570 381.347656,579.186768 376.436035,576.460632 
	C375.991516,576.213928 376.018860,574.911987 376.018585,574.100037 
	C376.011627,553.773315 376.027496,533.446594 376.063019,513.119934 
	C376.063812,512.661865 376.338806,512.204346 376.584320,511.440308 
	C388.876068,511.049255 401.744293,508.195312 410.172302,521.662109 
	C414.348785,511.723663 415.192627,511.327576 424.991211,511.106903 
	C431.229095,510.966461 437.331116,510.679291 441.900360,517.737427 
	C442.656281,514.794861 443.039764,513.302063 443.652161,510.918304 
	C447.263062,511.338135 450.980896,511.770416 456.445374,512.405823 
	C464.226349,506.577209 469.715088,514.790710 476.783234,520.263611 
	C476.959076,517.088379 477.098755,514.566956 477.287170,511.164856 
	C481.913147,511.164856 486.492279,511.164886 491.071411,511.164886 
	C493.237396,511.164886 495.403564,511.181244 497.569366,511.161682 
	C503.228882,511.110565 509.187164,510.097900 512.833557,516.998352 
	C518.785645,508.613861 526.977234,511.141815 534.335449,511.434296 
	C540.507263,511.679596 547.795837,521.041504 547.799500,527.310486 
	C547.809021,543.638794 547.803467,559.967041 547.803894,576.295349 
	C547.803955,577.919006 547.803955,579.542725 547.803955,580.863525 
	C540.709412,584.043884 536.403198,579.499084 531.838867,576.208557 
	C531.125244,575.694092 531.369995,573.702698 531.355713,572.392273 
	C531.305725,567.805542 531.336365,563.218018 531.336365,558.630798 
	C530.868530,558.623718 530.400757,558.616699 529.932922,558.609619 
	C529.932922,566.115295 529.932922,573.620911 529.932922,580.889954 
	C523.164917,583.277771 518.222961,581.121277 514.115234,576.694824 
	C513.284607,575.799744 513.150452,574.013916 513.143738,572.636597 
	C513.076050,558.807861 513.022766,544.977844 513.159363,531.150146 
	C513.192078,527.844666 512.422058,526.344238 508.750244,526.413269 
	C505.333984,526.477539 503.605377,527.033020 503.660980,531.053406 
	C503.866089,545.879272 503.741730,560.709778 503.741272,575.538513 
	C503.741211,577.353394 503.741302,579.168274 503.741302,581.034851 
	C497.139954,583.278503 492.093933,580.988403 487.905609,576.451416 
	C487.094086,575.572266 487.275635,573.628906 487.270935,572.175537 
	C487.228149,559.013062 487.172333,545.849731 487.296875,532.688293 
	C487.328522,529.343323 487.252533,526.615051 483.243408,525.478882 
	C481.570770,525.004883 480.239624,523.325867 478.030518,521.644836 
	C478.030518,541.820312 478.030518,561.468384 478.030518,580.930054 
	C471.133850,583.375488 466.374878,580.559875 462.089935,576.620850 
	C461.323730,575.916443 461.244659,574.232849 461.220520,572.994141 
	C461.126465,568.164124 461.182037,563.331116 461.182129,557.999390 
M427.748718,563.444336 
	C428.036774,564.515808 428.507080,566.538391 428.586853,566.523132 
	C434.121063,565.462463 437.232635,569.669373 441.140930,572.116943 
	C441.426025,572.295471 442.064453,571.909851 442.722961,571.738464 
	C442.722961,564.005188 442.722961,556.284119 442.722961,547.948608 
	C439.617340,549.441162 437.049988,550.958008 434.292084,551.939392 
	C429.168335,553.762573 426.728943,557.015625 427.748718,563.444336 
M428.256195,534.604492 
	C430.562347,533.900757 432.868530,533.197083 435.224670,532.478088 
	C436.792786,534.259766 438.476837,536.173096 440.374084,538.328613 
	C445.164398,534.690613 442.114166,530.160706 442.928223,526.205200 
	C425.250946,524.957703 427.680145,525.513184 428.256195,534.604492 
z"/>
<path fill="#CA6EE7" opacity="1.000000" stroke="none" 
	d="
M614.154785,580.047363 
	C611.779663,577.654358 609.466980,575.568176 607.848328,573.037903 
	C606.182068,570.433228 605.192383,567.395630 602.967407,564.639526 
	C602.967407,570.073425 602.967407,575.507385 602.967407,580.914795 
	C596.100708,583.308777 591.152405,580.859070 586.765869,576.665222 
	C586.183105,576.108032 586.033997,574.881409 586.032227,573.964172 
	C585.992676,553.320374 586.001892,532.676514 586.001892,511.586273 
	C593.680603,511.586273 601.190918,510.779572 608.435059,511.821960 
	C615.159851,512.789612 620.754700,521.470764 620.758545,528.378174 
	C620.761658,534.041687 621.009521,539.722717 620.617126,545.358887 
	C620.487122,547.226257 619.133728,549.725586 617.581177,550.621399 
	C614.702148,552.282715 614.353699,553.784180 615.781067,556.580200 
	C617.728638,560.395325 619.309631,564.397644 621.647339,569.672485 
	C621.882935,567.157593 622.086243,565.987000 622.088074,564.816162 
	C622.110413,550.657349 622.077026,536.498413 622.113403,522.339661 
	C622.133911,514.361206 625.395630,511.735718 633.363159,511.049408 
	C646.655457,509.904358 651.869629,515.442322 657.668396,523.514771 
	C661.533875,509.891083 670.470947,506.757477 682.441101,514.828735 
	C694.183350,506.561249 703.596619,512.112549 710.649902,521.054138 
	C711.482483,522.109741 711.725647,523.868408 711.730530,525.302917 
	C711.792053,543.459106 711.762451,561.615540 711.735596,579.771973 
	C711.734924,580.237854 711.500610,580.703430 711.338745,581.304688 
	C705.453796,582.860229 700.511230,581.162598 696.535461,576.838684 
	C695.604370,575.825928 695.338684,573.899109 695.328552,572.389099 
	C695.239197,559.063721 695.284424,545.737549 695.266541,532.411560 
	C695.264343,530.806946 695.123779,529.202454 693.978516,527.607666 
	C693.978516,545.399475 693.978516,563.191284 693.978516,580.916687 
	C687.105713,583.307129 682.082092,580.961426 677.830322,576.576294 
	C677.006897,575.727051 677.099060,573.804871 677.093689,572.376343 
	C677.043213,559.050598 677.063721,545.724548 677.063721,532.398621 
	C677.063721,530.795471 677.063721,529.192322 677.063721,527.589233 
	C676.634155,527.584595 676.204651,527.580017 675.775085,527.575378 
	C675.775085,545.399658 675.775085,563.223938 675.775085,581.366333 
	C670.204834,581.739136 665.757751,582.579651 661.483459,577.908203 
	C658.253113,574.377808 657.737366,578.968384 657.230713,580.996826 
	C650.309204,583.966431 645.620361,579.898254 640.915894,576.356567 
	C640.184204,575.805786 640.376160,573.860779 640.359436,572.557678 
	C640.300476,567.953369 640.336426,563.347839 640.336426,558.742737 
	C639.908691,558.738098 639.480957,558.733398 639.053223,558.728760 
	C639.053223,566.148865 639.053223,573.569031 639.053223,581.276489 
	C637.170166,581.476929 635.907043,581.716370 634.641907,581.727600 
	C629.598694,581.772400 624.549622,581.875916 619.514099,581.673462 
	C617.832458,581.605835 616.184998,580.688171 614.154785,580.047363 
z"/>
<path fill="#CA6EE7" opacity="1.000000" stroke="none" 
	d="
M578.098877,515.921143 
	C584.443665,519.245605 585.628784,524.696594 584.484924,530.572327 
	C584.074219,532.682007 581.400269,534.351013 579.423950,536.603149 
	C585.156372,538.606934 584.832336,543.670227 584.746277,548.877747 
	C584.568237,559.657349 584.692688,570.441956 584.692688,581.634949 
	C577.016907,581.634949 569.851013,582.148926 562.795227,581.487671 
	C555.990417,580.849976 549.915405,572.913818 549.906616,565.992065 
	C549.887878,551.162476 549.867126,536.332825 549.917969,521.503418 
	C549.942322,514.396912 553.162415,511.090240 560.337158,511.224243 
	C566.457642,511.338562 573.257385,509.292236 578.098877,515.921143 
M572.218323,535.662476 
	C570.323853,532.656494 568.429321,529.650574 566.301514,526.274353 
	C566.301514,530.790833 566.301514,535.129761 566.301514,540.235352 
	C568.969299,538.597839 571.025635,537.335693 573.531799,535.927185 
	C573.509094,535.693298 573.486389,535.459351 573.463745,535.225464 
	C573.261902,535.434021 573.060059,535.642517 572.218323,535.662476 
M565.823242,556.874023 
	C565.823242,560.120667 565.823242,563.367371 565.823242,566.614014 
	C566.619507,566.565857 567.415833,566.517700 568.212097,566.469543 
	C567.854492,561.978271 567.496887,557.487000 567.139282,552.995728 
	C566.702698,553.022583 566.266174,553.049438 565.829590,553.076294 
	C565.829590,554.054626 565.829590,555.032898 565.823242,556.874023 
z"/>
<path fill="#FFFFFF" opacity="1.000000" stroke="none" 
	d="
M427.747467,562.984314 
	C426.728943,557.015625 429.168335,553.762573 434.292084,551.939392 
	C437.049988,550.958008 439.617340,549.441162 442.722961,547.948608 
	C442.722961,556.284119 442.722961,564.005188 442.722961,571.738464 
	C442.064453,571.909851 441.426025,572.295471 441.140930,572.116943 
	C437.232635,569.669373 434.121063,565.462463 428.586853,566.523132 
	C428.507080,566.538391 428.036774,564.515808 427.747467,562.984314 
z"/>
<path fill="#FFFFFF" opacity="1.000000" stroke="none" 
	d="
M428.065247,534.234009 
	C427.680145,525.513184 425.250946,524.957703 442.928223,526.205200 
	C442.114166,530.160706 445.164398,534.690613 440.374084,538.328613 
	C438.476837,536.173096 436.792786,534.259766 435.224670,532.478088 
	C432.868530,533.197083 430.562347,533.900757 428.065247,534.234009 
z"/>
<path fill="#FFFFFF" opacity="1.000000" stroke="none" 
	d="
M573.081970,536.073486 
	C571.025635,537.335693 568.969299,538.597839 566.301514,540.235352 
	C566.301514,535.129761 566.301514,530.790833 566.301514,526.274353 
	C568.429321,529.650574 570.323853,532.656494 572.593262,535.813354 
	C572.968201,535.964172 573.081970,536.073486 573.081970,536.073486 
z"/>
<path fill="#FFFFFF" opacity="1.000000" stroke="none" 
	d="
M565.826416,556.442627 
	C565.829590,555.032898 565.829590,554.054626 565.829590,553.076294 
	C566.266174,553.049438 566.702698,553.022583 567.139282,552.995728 
	C567.496887,557.487000 567.854492,561.978271 568.212097,566.469543 
	C567.415833,566.517700 566.619507,566.565857 565.823242,566.614014 
	C565.823242,563.367371 565.823242,560.120667 565.826416,556.442627 
z"/>
<path fill="#FFFFFF" opacity="1.000000" stroke="none" 
	d="
M572.913208,535.907593 
	C573.060059,535.642517 573.261902,535.434021 573.463745,535.225464 
	C573.486389,535.459351 573.509094,535.693298 573.306885,536.000366 
	C573.081970,536.073486 572.968201,535.964172 572.913208,535.907593 
z"/>
</svg>